<svg xmlns="http://www.w3.org/2000/svg" xmlns:xlink="http://www.w3.org/1999/xlink" width="500" zoomAndPan="magnify" viewBox="0 0 375 374.999991" height="500" preserveAspectRatio="xMidYMid meet" version="1.0"><defs><g/></defs><g fill="#000000" fill-opacity="1"><g transform="translate(167.725394, 246.479741)"><g><path d="M 127.1875 15.703125 C 122.769531 18.722656 118.347656 20.929688 113.921875 22.328125 C 109.503906 23.722656 104.5625 24.421875 99.09375 24.421875 C 92.8125 24.421875 87.546875 22.992188 83.296875 20.140625 C 79.054688 17.296875 75.363281 13.722656 72.21875 9.421875 C 69.082031 5.117188 66.289062 0.4375 63.84375 -4.625 C 61.40625 -9.6875 58.789062 -14.367188 56 -18.671875 C 53.207031 -22.972656 50.007812 -26.546875 46.40625 -29.390625 C 42.800781 -32.242188 38.382812 -33.671875 33.15625 -33.671875 L 23.03125 -33.671875 L 23.03125 -10.8125 C 23.03125 -8.488281 23.492188 -6.28125 24.421875 -4.1875 C 25.359375 -2.09375 27.046875 -0.695312 29.484375 0 L 6.109375 0 C 8.660156 -0.582031 10.34375 -2.003906 11.15625 -4.265625 C 11.976562 -6.535156 12.390625 -8.835938 12.390625 -11.171875 L 12.390625 -75.015625 C 12.390625 -77.347656 11.953125 -79.53125 11.078125 -81.5625 C 10.203125 -83.601562 8.546875 -84.910156 6.109375 -85.484375 L 35.765625 -85.484375 C 39.953125 -85.484375 44.050781 -85.019531 48.0625 -84.09375 C 52.070312 -83.164062 55.644531 -81.679688 58.78125 -79.640625 C 61.925781 -77.609375 64.457031 -74.929688 66.375 -71.609375 C 68.300781 -68.296875 69.265625 -64.257812 69.265625 -59.5 C 69.265625 -55.539062 68.421875 -51.988281 66.734375 -48.84375 C 65.046875 -45.707031 62.863281 -43.0625 60.1875 -40.90625 C 57.507812 -38.757812 54.425781 -37.070312 50.9375 -35.84375 C 47.445312 -34.625 43.84375 -33.957031 40.125 -33.84375 C 44.3125 -32.914062 48.09375 -30.9375 51.46875 -27.90625 C 54.84375 -24.882812 58.128906 -21.367188 61.328125 -17.359375 C 64.523438 -13.347656 67.664062 -9.160156 70.75 -4.796875 C 73.832031 -0.429688 77.144531 3.578125 80.6875 7.234375 C 84.238281 10.898438 88.132812 13.925781 92.375 16.3125 C 96.625 18.695312 101.363281 19.890625 106.59375 19.890625 C 110.4375 19.890625 113.898438 19.453125 116.984375 18.578125 C 120.066406 17.703125 123.234375 16.28125 126.484375 14.3125 Z M 23.03125 -34.890625 L 34.71875 -34.890625 C 42.164062 -34.890625 47.984375 -37.15625 52.171875 -41.6875 C 56.359375 -46.226562 58.453125 -52.164062 58.453125 -59.5 C 58.453125 -67.175781 56.441406 -73.164062 52.421875 -77.46875 C 48.410156 -81.769531 42.507812 -83.921875 34.71875 -83.921875 L 23.03125 -83.921875 Z M 23.03125 -34.890625 "/></g></g></g><g fill="#000000" fill-opacity="1"><g transform="translate(107.3423, 205.894299)"><g><path d="M 17.96875 -6.984375 C 17.96875 -2.554688 17.617188 1.921875 16.921875 6.453125 C 16.222656 10.992188 15 15.238281 13.25 19.1875 C 11.507812 23.144531 9.125 26.691406 6.09375 29.828125 C 3.070312 32.972656 -0.757812 35.414062 -5.40625 37.15625 L -5.9375 35.59375 C 0.695312 32.914062 5.289062 28.8125 7.84375 23.28125 C 10.40625 17.757812 11.6875 11.6875 11.6875 5.0625 C 11.6875 2.15625 11.507812 -0.691406 11.15625 -3.484375 C 10.8125 -6.273438 10.347656 -9.125 9.765625 -12.03125 L 8.890625 -16.75 C 8.429688 -19.539062 8 -22.332031 7.59375 -25.125 C 7.1875 -27.914062 6.984375 -30.765625 6.984375 -33.671875 C 6.984375 -36.347656 7.125 -38.960938 7.40625 -41.515625 C 7.695312 -44.078125 8.132812 -46.640625 8.71875 -49.203125 C 5 -48.960938 1.394531 -48.085938 -2.09375 -46.578125 C -5.582031 -45.066406 -8.664062 -43.035156 -11.34375 -40.484375 L -13.4375 -40.65625 C -10.0625 -43.675781 -6.570312 -46.054688 -2.96875 -47.796875 C 0.632812 -49.546875 4.765625 -50.710938 9.421875 -51.296875 C 12.796875 -62.921875 18.550781 -71.523438 26.6875 -77.109375 C 34.832031 -82.691406 44.835938 -85.484375 56.703125 -85.484375 L 72.75 -85.484375 C 70.195312 -84.785156 68.484375 -83.421875 67.609375 -81.390625 C 66.734375 -79.359375 66.296875 -77.175781 66.296875 -74.84375 L 66.296875 -11.171875 C 66.296875 -8.722656 66.734375 -6.453125 67.609375 -4.359375 C 68.484375 -2.265625 70.195312 -0.8125 72.75 0 L 49.203125 0 C 51.878906 -0.695312 53.648438 -2.117188 54.515625 -4.265625 C 55.390625 -6.421875 55.828125 -8.722656 55.828125 -11.171875 L 55.828125 -24.953125 C 55.828125 -26.109375 55.59375 -27.210938 55.125 -28.265625 C 53.5 -31.753906 51.316406 -34.773438 48.578125 -37.328125 C 45.847656 -39.890625 42.828125 -42.039062 39.515625 -43.78125 C 36.203125 -45.53125 32.710938 -46.84375 29.046875 -47.71875 C 25.378906 -48.59375 21.742188 -49.085938 18.140625 -49.203125 C 17.554688 -46.640625 17.175781 -44.109375 17 -41.609375 C 16.832031 -39.109375 16.75 -36.578125 16.75 -34.015625 C 16.75 -32.390625 16.773438 -30.703125 16.828125 -28.953125 C 16.890625 -27.210938 16.976562 -25.53125 17.09375 -23.90625 L 17.625 -17.09375 C 17.738281 -15.46875 17.820312 -13.8125 17.875 -12.125 C 17.9375 -10.4375 17.96875 -8.722656 17.96875 -6.984375 Z M 18.5 -51.296875 C 22.21875 -51.179688 25.90625 -50.628906 29.5625 -49.640625 C 33.226562 -48.648438 36.71875 -47.28125 40.03125 -45.53125 C 43.351562 -43.789062 46.378906 -41.640625 49.109375 -39.078125 C 51.847656 -36.523438 54.085938 -33.5625 55.828125 -30.1875 L 55.828125 -74.84375 C 55.828125 -75.78125 55.796875 -76.738281 55.734375 -77.71875 C 55.679688 -78.707031 55.476562 -79.640625 55.125 -80.515625 C 54.78125 -81.390625 54.257812 -82.117188 53.5625 -82.703125 C 52.863281 -83.285156 51.929688 -83.578125 50.765625 -83.578125 C 46.347656 -83.578125 42.335938 -82.644531 38.734375 -80.78125 C 35.128906 -78.914062 31.957031 -76.441406 29.21875 -73.359375 C 26.488281 -70.273438 24.222656 -66.8125 22.421875 -62.96875 C 20.617188 -59.132812 19.3125 -55.242188 18.5 -51.296875 Z M 18.5 -51.296875 "/></g></g></g><g fill="#000000" fill-opacity="1"><g transform="translate(176.571864, 137.668444)"><g><path d="M 6.03125 -2.546875 L 2.46875 -2.546875 L 1.546875 0 L 0.453125 0 L 3.734375 -8.734375 L 4.75 -8.734375 L 8.0625 0 L 6.96875 0 Z M 5.71875 -3.40625 L 4.25 -7.359375 L 4.203125 -7.359375 L 2.78125 -3.40625 Z M 5.71875 -3.40625 "/></g></g></g><g fill="#000000" fill-opacity="1"><g transform="translate(190.149936, 137.668444)"><g><path d="M 4.28125 0.109375 C 3.164062 0.109375 2.304688 -0.234375 1.703125 -0.921875 C 1.109375 -1.609375 0.8125 -2.582031 0.8125 -3.84375 L 0.8125 -8.734375 L 1.875 -8.734375 L 1.875 -3.875 C 1.875 -3.144531 2.03125 -2.46875 2.34375 -1.84375 C 2.664062 -1.226562 3.3125 -0.921875 4.28125 -0.921875 C 5.226562 -0.921875 5.859375 -1.226562 6.171875 -1.84375 C 6.492188 -2.457031 6.65625 -3.132812 6.65625 -3.875 L 6.65625 -8.734375 L 7.71875 -8.734375 L 7.71875 -3.84375 C 7.71875 -2.582031 7.421875 -1.609375 6.828125 -0.921875 C 6.234375 -0.234375 5.382812 0.109375 4.28125 0.109375 Z M 4.28125 0.109375 "/></g></g></g><g fill="#000000" fill-opacity="1"><g transform="translate(203.777916, 137.668444)"><g><path d="M 6.78125 -7.765625 L 4.203125 -7.765625 L 4.203125 0 L 3.140625 0 L 3.140625 -7.765625 L 0.5625 -7.765625 L 0.5625 -8.734375 L 6.78125 -8.734375 Z M 6.78125 -7.765625 "/></g></g></g><g fill="#000000" fill-opacity="1"><g transform="translate(216.220317, 137.668444)"><g><path d="M 4.59375 0.09375 C 3.757812 0.09375 3.046875 -0.0976562 2.453125 -0.484375 C 1.859375 -0.867188 1.40625 -1.398438 1.09375 -2.078125 C 0.789062 -2.765625 0.640625 -3.539062 0.640625 -4.40625 C 0.640625 -5.269531 0.796875 -6.046875 1.109375 -6.734375 C 1.421875 -7.421875 1.875 -7.957031 2.46875 -8.34375 C 3.0625 -8.726562 3.769531 -8.921875 4.59375 -8.921875 C 5.40625 -8.921875 6.109375 -8.726562 6.703125 -8.34375 C 7.296875 -7.957031 7.742188 -7.421875 8.046875 -6.734375 C 8.359375 -6.054688 8.515625 -5.273438 8.515625 -4.390625 C 8.515625 -3.515625 8.359375 -2.738281 8.046875 -2.0625 C 7.742188 -1.394531 7.296875 -0.867188 6.703125 -0.484375 C 6.109375 -0.0976562 5.40625 0.09375 4.59375 0.09375 Z M 4.578125 -0.90625 C 5.148438 -0.90625 5.648438 -1.050781 6.078125 -1.34375 C 6.503906 -1.644531 6.828125 -2.0625 7.046875 -2.59375 C 7.273438 -3.125 7.390625 -3.734375 7.390625 -4.421875 C 7.390625 -5.097656 7.273438 -5.703125 7.046875 -6.234375 C 6.828125 -6.773438 6.503906 -7.191406 6.078125 -7.484375 C 5.648438 -7.785156 5.148438 -7.9375 4.578125 -7.9375 C 4.003906 -7.9375 3.503906 -7.785156 3.078125 -7.484375 C 2.660156 -7.179688 2.335938 -6.765625 2.109375 -6.234375 C 1.878906 -5.703125 1.765625 -5.097656 1.765625 -4.421875 C 1.765625 -3.734375 1.878906 -3.125 2.109375 -2.59375 C 2.335938 -2.070312 2.660156 -1.660156 3.078125 -1.359375 C 3.503906 -1.054688 4.003906 -0.90625 4.578125 -0.90625 Z M 4.578125 -0.90625 "/></g></g></g><g fill="#000000" fill-opacity="1"><g transform="translate(176.571864, 154.308156)"><g/></g></g><g fill="#000000" fill-opacity="1"><g transform="translate(184.533992, 154.308156)"><g/></g></g><g fill="#000000" fill-opacity="1"><g transform="translate(192.49612, 154.308156)"><g/></g></g><g fill="#000000" fill-opacity="1"><g transform="translate(200.458248, 154.308156)"><g/></g></g><g fill="#000000" fill-opacity="1"><g transform="translate(208.420376, 154.308156)"><g/></g></g><g fill="#000000" fill-opacity="1"><g transform="translate(216.382504, 154.308156)"><g/></g></g><g fill="#000000" fill-opacity="1"><g transform="translate(224.346037, 154.308156)"><g><path d="M 3.578125 -3.484375 L 2.015625 -3.484375 L 2.015625 0 L 0.9375 0 L 0.9375 -8.734375 L 3.90625 -8.734375 C 4.613281 -8.734375 5.191406 -8.601562 5.640625 -8.34375 C 6.097656 -8.09375 6.425781 -7.765625 6.625 -7.359375 C 6.820312 -6.960938 6.921875 -6.546875 6.921875 -6.109375 C 6.921875 -5.492188 6.738281 -4.945312 6.375 -4.46875 C 6.019531 -3.988281 5.457031 -3.679688 4.6875 -3.546875 L 7 0 L 5.8125 0 Z M 2.015625 -4.40625 L 3.765625 -4.40625 C 4.359375 -4.40625 4.859375 -4.535156 5.265625 -4.796875 C 5.671875 -5.054688 5.875 -5.492188 5.875 -6.109375 C 5.875 -6.710938 5.671875 -7.140625 5.265625 -7.390625 C 4.859375 -7.640625 4.359375 -7.765625 3.765625 -7.765625 L 2.015625 -7.765625 Z M 2.015625 -4.40625 "/></g></g></g><g fill="#000000" fill-opacity="1"><g transform="translate(236.988116, 154.308156)"><g><path d="M 2.015625 -7.765625 L 2.015625 -4.890625 L 5.8125 -4.890625 L 5.8125 -4.015625 L 2.015625 -4.015625 L 2.015625 -0.96875 L 6.3125 -0.96875 L 6.3125 0 L 0.9375 0 L 0.9375 -8.734375 L 6.3125 -8.734375 L 6.3125 -7.765625 Z M 2.015625 -7.765625 "/></g></g></g><g fill="#000000" fill-opacity="1"><g transform="translate(249.180915, 154.308156)"><g><path d="M 6.03125 -2.546875 L 2.46875 -2.546875 L 1.546875 0 L 0.453125 0 L 3.734375 -8.734375 L 4.75 -8.734375 L 8.0625 0 L 6.96875 0 Z M 5.71875 -3.40625 L 4.25 -7.359375 L 4.203125 -7.359375 L 2.78125 -3.40625 Z M 5.71875 -3.40625 "/></g></g></g><g fill="#000000" fill-opacity="1"><g transform="translate(262.758987, 154.308156)"><g><path d="M 4.625 0.09375 C 3.800781 0.09375 3.09375 -0.0976562 2.5 -0.484375 C 1.914062 -0.878906 1.46875 -1.414062 1.15625 -2.09375 C 0.84375 -2.78125 0.6875 -3.554688 0.6875 -4.421875 C 0.6875 -5.285156 0.84375 -6.054688 1.15625 -6.734375 C 1.46875 -7.421875 1.914062 -7.957031 2.5 -8.34375 C 3.09375 -8.726562 3.800781 -8.921875 4.625 -8.921875 C 5.601562 -8.921875 6.410156 -8.644531 7.046875 -8.09375 C 7.691406 -7.539062 8.125 -6.796875 8.34375 -5.859375 L 7.28125 -5.859375 C 7.101562 -6.492188 6.78125 -7 6.3125 -7.375 C 5.851562 -7.757812 5.289062 -7.953125 4.625 -7.953125 C 3.71875 -7.953125 3.023438 -7.632812 2.546875 -7 C 2.066406 -6.363281 1.828125 -5.507812 1.828125 -4.4375 C 1.828125 -3.351562 2.066406 -2.492188 2.546875 -1.859375 C 3.023438 -1.222656 3.71875 -0.90625 4.625 -0.90625 C 5.25 -0.90625 5.785156 -1.070312 6.234375 -1.40625 C 6.691406 -1.738281 7.015625 -2.191406 7.203125 -2.765625 L 8.265625 -2.765625 C 8.035156 -1.890625 7.601562 -1.191406 6.96875 -0.671875 C 6.34375 -0.160156 5.5625 0.09375 4.625 0.09375 Z M 4.625 0.09375 "/></g></g></g><g fill="#000000" fill-opacity="1"><g transform="translate(276.736415, 154.308156)"><g><path d="M 6.78125 -7.765625 L 4.203125 -7.765625 L 4.203125 0 L 3.140625 0 L 3.140625 -7.765625 L 0.5625 -7.765625 L 0.5625 -8.734375 L 6.78125 -8.734375 Z M 6.78125 -7.765625 "/></g></g></g></svg>