<?xml version="1.0" encoding="UTF-8"?>
<svg width="1200pt" height="1200pt" version="1.1" viewBox="0 0 1200 1200" xmlns="http://www.w3.org/2000/svg">
 <defs>
  <clipPath id="b">
   <path d="m622 332h355.86v536h-355.86z"/>
  </clipPath>
  <clipPath id="a">
   <path d="m222.14 332h355.86v536h-355.86z"/>
  </clipPath>
 </defs>
 <g>
  <g clip-path="url(#b)">
   <path d="m819.67 867.16c42.844 1.6328 84.363-15.004 114.23-45.766 29.391-30.633 45.23-71.793 43.957-114.23 0.58594-38.547-16.203-75.309-45.723-100.11-27.648-25.867-64.062-40.312-101.93-40.434-14.93 1.0586-29.531 4.9062-43.047 11.348-12.422 6.082-25.812 9.9531-39.566 11.438-10.535 0-15.793-11.695-15.773-35.082 0.625-26.496 7.2812-52.5 19.453-76.039 12.176-23.539 29.551-44 50.809-59.824 42.625-37.906 97.613-58.965 154.65-59.219l-3.5273-26.406c-43.191-0.80469-86.113 7.0195-126.24 23.016-40.129 15.996-76.66 39.84-107.46 70.137-30.855 28.352-55.41 62.871-72.066 101.32-16.652 38.453-25.035 79.977-24.602 121.88-1.2344 56.348 18.484 111.15 55.336 153.8 17.238 20.652 38.914 37.148 63.414 48.258 24.5 11.113 51.191 16.547 78.082 15.906z" fill="#301f35"/>
  </g>
  <g clip-path="url(#a)">
   <path d="m277.49 802.99c17.238 20.652 38.914 37.148 63.41 48.258 24.5 11.113 51.191 16.551 78.086 15.906 42.84 1.6328 84.363-15.004 114.23-45.766 29.391-30.633 45.23-71.793 43.953-114.23 0.99219-38.707-15.461-75.812-44.812-101.07-28.094-25.625-64.812-39.719-102.84-39.473-14.93 1.0586-29.531 4.9062-43.043 11.348-12.426 6.082-25.816 9.9531-39.57 11.438-10.535 0-15.793-11.695-15.781-35.082 0.62891-26.496 7.2812-52.5 19.457-76.039 12.176-23.543 29.555-44 50.812-59.824 42.625-37.906 97.609-58.961 154.65-59.219l-3.5195-26.406c-43.195-0.80859-86.113 7.0156-126.24 23.012-40.125 15.996-76.66 39.844-107.45 70.141-30.863 28.348-55.422 62.867-72.078 101.32s-25.043 79.98-24.609 121.88c-1.2305 56.352 18.492 111.15 55.348 153.8z" fill="#301f35"/>
  </g>
 </g>
</svg>
